<mxfile host="app.diagrams.net" modified="2022-04-28T13:35:33.200Z" agent="5.0 (Windows NT 10.0; Win64; x64) AppleWebKit/537.36 (KHTML, like Gecko) Chrome/100.0.4896.127 Safari/537.36 Edg/100.0.1185.50" etag="oxIi6qc8vvVgjCxe6z-Q" version="17.4.6" type="github">
  <diagram id="16EbBbcaa_Aw5Abk4u6R" name="Page-1">
    <mxGraphModel dx="1038" dy="579" grid="1" gridSize="10" guides="1" tooltips="1" connect="1" arrows="1" fold="1" page="1" pageScale="1" pageWidth="850" pageHeight="1100" math="0" shadow="0">
      <root>
        <mxCell id="0" />
        <mxCell id="1" parent="0" />
        <mxCell id="CdM74BGcVK4-keiteM2k-8" value="" style="edgeStyle=orthogonalEdgeStyle;rounded=0;orthogonalLoop=1;jettySize=auto;html=1;" edge="1" parent="1" source="CdM74BGcVK4-keiteM2k-2" target="CdM74BGcVK4-keiteM2k-7">
          <mxGeometry relative="1" as="geometry" />
        </mxCell>
        <mxCell id="CdM74BGcVK4-keiteM2k-2" value="start" style="rounded=1;whiteSpace=wrap;html=1;" vertex="1" parent="1">
          <mxGeometry x="210" y="30" width="90" height="20" as="geometry" />
        </mxCell>
        <mxCell id="CdM74BGcVK4-keiteM2k-10" value="" style="edgeStyle=orthogonalEdgeStyle;rounded=0;orthogonalLoop=1;jettySize=auto;html=1;" edge="1" parent="1" source="CdM74BGcVK4-keiteM2k-7" target="CdM74BGcVK4-keiteM2k-9">
          <mxGeometry relative="1" as="geometry" />
        </mxCell>
        <mxCell id="CdM74BGcVK4-keiteM2k-7" value="set the tower type,player and opp truck id" style="rounded=0;whiteSpace=wrap;html=1;" vertex="1" parent="1">
          <mxGeometry x="195" y="90" width="120" height="60" as="geometry" />
        </mxCell>
        <mxCell id="CdM74BGcVK4-keiteM2k-12" value="" style="edgeStyle=orthogonalEdgeStyle;rounded=0;orthogonalLoop=1;jettySize=auto;html=1;" edge="1" parent="1" source="CdM74BGcVK4-keiteM2k-9" target="CdM74BGcVK4-keiteM2k-11">
          <mxGeometry relative="1" as="geometry" />
        </mxCell>
        <mxCell id="CdM74BGcVK4-keiteM2k-9" value="IF tower is stock" style="rhombus;whiteSpace=wrap;html=1;rounded=0;" vertex="1" parent="1">
          <mxGeometry x="215" y="200" width="80" height="80" as="geometry" />
        </mxCell>
        <mxCell id="CdM74BGcVK4-keiteM2k-15" value="" style="edgeStyle=orthogonalEdgeStyle;rounded=0;orthogonalLoop=1;jettySize=auto;html=1;entryX=0;entryY=0.5;entryDx=0;entryDy=0;" edge="1" parent="1" source="CdM74BGcVK4-keiteM2k-11" target="CdM74BGcVK4-keiteM2k-14">
          <mxGeometry relative="1" as="geometry" />
        </mxCell>
        <mxCell id="CdM74BGcVK4-keiteM2k-11" value="set the initial tower hp,stock value and stock man trigger&amp;nbsp;" style="whiteSpace=wrap;html=1;rounded=0;" vertex="1" parent="1">
          <mxGeometry x="195" y="320" width="120" height="60" as="geometry" />
        </mxCell>
        <mxCell id="CdM74BGcVK4-keiteM2k-17" value="" style="edgeStyle=orthogonalEdgeStyle;rounded=0;orthogonalLoop=1;jettySize=auto;html=1;" edge="1" parent="1" source="CdM74BGcVK4-keiteM2k-14" target="CdM74BGcVK4-keiteM2k-16">
          <mxGeometry relative="1" as="geometry" />
        </mxCell>
        <mxCell id="CdM74BGcVK4-keiteM2k-14" value="calculate the stock man trigger&amp;nbsp;" style="whiteSpace=wrap;html=1;rounded=0;" vertex="1" parent="1">
          <mxGeometry x="360" y="30" width="120" height="60" as="geometry" />
        </mxCell>
        <mxCell id="CdM74BGcVK4-keiteM2k-24" value="" style="edgeStyle=orthogonalEdgeStyle;rounded=0;orthogonalLoop=1;jettySize=auto;html=1;" edge="1" parent="1" source="CdM74BGcVK4-keiteM2k-16" target="CdM74BGcVK4-keiteM2k-18">
          <mxGeometry relative="1" as="geometry" />
        </mxCell>
        <mxCell id="CdM74BGcVK4-keiteM2k-16" value="set the business object" style="whiteSpace=wrap;html=1;rounded=0;" vertex="1" parent="1">
          <mxGeometry x="360" y="130" width="120" height="60" as="geometry" />
        </mxCell>
        <mxCell id="CdM74BGcVK4-keiteM2k-25" style="edgeStyle=orthogonalEdgeStyle;rounded=0;orthogonalLoop=1;jettySize=auto;html=1;entryX=0;entryY=0.5;entryDx=0;entryDy=0;" edge="1" parent="1" source="CdM74BGcVK4-keiteM2k-18" target="CdM74BGcVK4-keiteM2k-20">
          <mxGeometry relative="1" as="geometry" />
        </mxCell>
        <mxCell id="CdM74BGcVK4-keiteM2k-18" value="set the hp treshold arra and value" style="whiteSpace=wrap;html=1;rounded=0;" vertex="1" parent="1">
          <mxGeometry x="360" y="300" width="120" height="60" as="geometry" />
        </mxCell>
        <mxCell id="CdM74BGcVK4-keiteM2k-19" value="" style="edgeStyle=orthogonalEdgeStyle;rounded=0;orthogonalLoop=1;jettySize=auto;html=1;" edge="1" parent="1" source="CdM74BGcVK4-keiteM2k-20" target="CdM74BGcVK4-keiteM2k-23">
          <mxGeometry relative="1" as="geometry" />
        </mxCell>
        <mxCell id="CdM74BGcVK4-keiteM2k-20" value="FOR&amp;nbsp; threshold&amp;nbsp;" style="rhombus;whiteSpace=wrap;html=1;rounded=0;" vertex="1" parent="1">
          <mxGeometry x="540" y="10" width="80" height="80" as="geometry" />
        </mxCell>
        <mxCell id="CdM74BGcVK4-keiteM2k-21" style="edgeStyle=orthogonalEdgeStyle;rounded=0;orthogonalLoop=1;jettySize=auto;html=1;entryX=1;entryY=0.5;entryDx=0;entryDy=0;" edge="1" parent="1" source="CdM74BGcVK4-keiteM2k-23" target="CdM74BGcVK4-keiteM2k-20">
          <mxGeometry relative="1" as="geometry">
            <Array as="points">
              <mxPoint x="580" y="190" />
              <mxPoint x="680" y="190" />
              <mxPoint x="680" y="50" />
            </Array>
          </mxGeometry>
        </mxCell>
        <mxCell id="CdM74BGcVK4-keiteM2k-22" value="next threshold&amp;nbsp;" style="edgeLabel;html=1;align=center;verticalAlign=middle;resizable=0;points=[];" vertex="1" connectable="0" parent="CdM74BGcVK4-keiteM2k-21">
          <mxGeometry x="0.0374" y="1" relative="1" as="geometry">
            <mxPoint as="offset" />
          </mxGeometry>
        </mxCell>
        <mxCell id="CdM74BGcVK4-keiteM2k-29" value="" style="edgeStyle=orthogonalEdgeStyle;rounded=0;orthogonalLoop=1;jettySize=auto;html=1;" edge="1" parent="1" source="CdM74BGcVK4-keiteM2k-23" target="CdM74BGcVK4-keiteM2k-27">
          <mxGeometry relative="1" as="geometry" />
        </mxCell>
        <mxCell id="CdM74BGcVK4-keiteM2k-23" value="calculate the hp threshold hp value" style="rounded=0;whiteSpace=wrap;html=1;" vertex="1" parent="1">
          <mxGeometry x="520" y="120" width="120" height="60" as="geometry" />
        </mxCell>
        <mxCell id="CdM74BGcVK4-keiteM2k-26" value="" style="edgeStyle=orthogonalEdgeStyle;rounded=0;orthogonalLoop=1;jettySize=auto;html=1;" edge="1" parent="1" source="CdM74BGcVK4-keiteM2k-27" target="CdM74BGcVK4-keiteM2k-28">
          <mxGeometry relative="1" as="geometry" />
        </mxCell>
        <mxCell id="CdM74BGcVK4-keiteM2k-27" value="return property object" style="whiteSpace=wrap;html=1;rounded=0;" vertex="1" parent="1">
          <mxGeometry x="520" y="280" width="120" height="60" as="geometry" />
        </mxCell>
        <mxCell id="CdM74BGcVK4-keiteM2k-28" value="end" style="ellipse;whiteSpace=wrap;html=1;rounded=0;" vertex="1" parent="1">
          <mxGeometry x="700" y="190" width="120" height="60" as="geometry" />
        </mxCell>
      </root>
    </mxGraphModel>
  </diagram>
</mxfile>
